<svg id="Layer_1" data-name="Layer 1" xmlns="http://www.w3.org/2000/svg" xmlns:xlink="http://www.w3.org/1999/xlink" viewBox="0 0 5180 2664"><defs><style>.cls-1{fill:url(#radial-gradient);}.cls-2{mask:url(#mask);}.cls-3{fill:none;stroke:#f17072;stroke-miterlimit:10;}</style><radialGradient id="radial-gradient" cx="2502.45" cy="-1210.91" fx="2492.3987882186816" fy="-1531.5265393322782" r="3381.5" gradientTransform="translate(-282.29 2016.24) scale(1.1 0.49)" gradientUnits="userSpaceOnUse"><stop offset="0.39" stop-color="#fff"/><stop offset="0.43" stop-color="#f9f9f9"/><stop offset="0.48" stop-color="#e7e7e7"/><stop offset="0.55" stop-color="#cacaca"/><stop offset="0.62" stop-color="#a1a1a1"/><stop offset="0.68" stop-color="#797979"/><stop offset="0.73" stop-color="#555"/><stop offset="0.83"/><stop offset="0.98"/><stop offset="1"/></radialGradient><mask id="mask" x="-558.85" y="-1070.67" width="6327.81" height="4826.84" maskUnits="userSpaceOnUse"><g id="SVGID"><rect class="cls-1" x="-558.85" y="-127.51" width="6327.81" height="3108.51"/></g></mask></defs><title>Int-04</title><g class="cls-2"><path class="cls-3" d="M3507.56-1070.17H1679.94A830.33,830.33,0,0,0,961-655.15L47.13,927.68a830.25,830.25,0,0,0,0,830.14L961,3340.65a830.07,830.07,0,0,0,718.94,415H3507.68a830.33,830.33,0,0,0,718.94-415l913.76-1582.84a830.25,830.25,0,0,0,0-830.14L4226.5-655.15A830.07,830.07,0,0,0,3507.56-1070.17Z"/><path class="cls-3" d="M3478.77-994.27h-1770a804.3,804.3,0,0,0-696.32,402L127.22,940.7a803.93,803.93,0,0,0,0,804l885.08,1533.08a804,804,0,0,0,696.32,402H3478.88a804.3,804.3,0,0,0,696.32-402l885-1533.08a803.93,803.93,0,0,0,0-804l-885.08-1533A803.76,803.76,0,0,0,3478.77-994.27Z"/><path class="cls-3" d="M3450.09-918.37H1737.41A778.12,778.12,0,0,0,1063.7-529.5L207.42,953.83a778.14,778.14,0,0,0,0,777.85l856.39,1483.22a777.62,777.62,0,0,0,673.71,388.87H3450.2a778.12,778.12,0,0,0,673.71-388.87l856.28-1483.22a778.14,778.14,0,0,0,0-777.85L4123.8-529.39A777.86,777.86,0,0,0,3450.09-918.37Z"/><path class="cls-3" d="M3421.3-842.47H1766.2a752.09,752.09,0,0,0-651.09,375.85L287.51,966.84a752,752,0,0,0,0,751.81l827.6,1433.47A751.82,751.82,0,0,0,1766.2,3528h1655.2a752.09,752.09,0,0,0,651.09-375.85L4900,1718.66a752,752,0,0,0,0-751.81L4072.39-466.62A751.82,751.82,0,0,0,3421.3-842.47Z"/><path class="cls-3" d="M3392.61-766.46H1794.89a725.92,725.92,0,0,0-628.48,362.83L367.6,980a725.69,725.69,0,0,0,0,725.67l798.92,1383.6A725.65,725.65,0,0,0,1795,3452.07H3392.72a725.91,725.91,0,0,0,628.48-362.83L4820,1705.64A725.69,725.69,0,0,0,4820,980L4021-403.74A725.37,725.37,0,0,0,3392.61-766.46Z"/><path class="cls-3" d="M3363.82-690.57H1823.68a699.77,699.77,0,0,0-605.86,349.71L447.69,993a699.37,699.37,0,0,0,0,699.52l770.13,1333.85a699.51,699.51,0,0,0,605.86,349.71H3363.93a699.77,699.77,0,0,0,605.86-349.71l770-1333.85a699.37,699.37,0,0,0,0-699.52L3969.68-340.86A699.51,699.51,0,0,0,3363.82-690.57Z"/><path class="cls-3" d="M3335-614.67H1852.36A673.47,673.47,0,0,0,1269.11-278L527.78,1006a673.58,673.58,0,0,0,0,673.38l741.33,1284a673.2,673.2,0,0,0,583.25,336.69H3335a673.47,673.47,0,0,0,583.25-336.69l741.33-1283.88a673.58,673.58,0,0,0,0-673.38l-741.33-1284A673.08,673.08,0,0,0,3335-614.67Z"/><path class="cls-3" d="M3306.35-538.77H1881.15a647.56,647.56,0,0,0-560.63,323.56L607.87,1019a647.46,647.46,0,0,0,0,647.34L1320.52,2900.6a647.3,647.3,0,0,0,560.63,323.56H3306.35A647.56,647.56,0,0,0,3867,2900.6l712.54-1234.23a647.46,647.46,0,0,0,0-647.34L3866.87-215.21A647.25,647.25,0,0,0,3306.35-538.77Z"/><path class="cls-3" d="M3277.55-462.87H1909.95a621.53,621.53,0,0,0-538,310.54L688.07,1032.15a621.13,621.13,0,0,0,0,621.2l683.86,1184.48a621.13,621.13,0,0,0,538,310.54H3277.66a621.53,621.53,0,0,0,538-310.54l683.75-1184.48a621.13,621.13,0,0,0,0-621.2L3815.57-152.33A621.26,621.26,0,0,0,3277.55-462.87Z"/><path class="cls-3" d="M3248.76-387h-1310a595.36,595.36,0,0,0-515.4,297.53L768.27,1045.17a595.34,595.34,0,0,0,0,595.05l655.07,1134.73a595,595,0,0,0,515.4,297.53H3249a595.36,595.36,0,0,0,515.4-297.53l655.07-1134.62a595.34,595.34,0,0,0,0-595.05L3764.16-89.45A595,595,0,0,0,3248.76-387Z"/><path class="cls-3" d="M3220.08-311H1967.42a569.31,569.31,0,0,0-492.79,284.4L848.36,1058.3a569,569,0,0,0,0,568.91l626.38,1084.86a568.81,568.81,0,0,0,492.79,284.4H3220.19A569.31,569.31,0,0,0,3713,2712.07L4339.25,1627.2a569,569,0,0,0,0-568.91L3712.76-26.57A568.64,568.64,0,0,0,3220.08-311Z"/><path class="cls-3" d="M3191.28-235.07H1996.22A543.14,543.14,0,0,0,1526,36.32l-597.59,1035a542.9,542.9,0,0,0,0,542.87l597.59,1035a542.88,542.88,0,0,0,470.17,271.38H3191.39a543.14,543.14,0,0,0,470.17-271.38l597.48-1035a542.9,542.9,0,0,0,0-542.87l-597.59-1035A542.64,542.64,0,0,0,3191.28-235.07Z"/><path class="cls-3" d="M3162.6-159.17H2024.9A517.11,517.11,0,0,0,1577.34,99.2l-568.8,985.25a516.58,516.58,0,0,0,0,516.73l568.8,985.25a516.84,516.84,0,0,0,447.56,258.36H3162.6a517.11,517.11,0,0,0,447.56-258.36L4179,1601.17a516.58,516.58,0,0,0,0-516.73L3610,99.2A516.43,516.43,0,0,0,3162.6-159.17Z"/><path class="cls-3" d="M3133.81-83.27H2053.69A490.39,490.39,0,0,0,1628.86,162l-540.11,935.49a490.79,490.79,0,0,0,0,490.58l540.11,935.49a490.39,490.39,0,0,0,424.83,245.24H3133.92a490.39,490.39,0,0,0,424.83-245.24l540-935.49a490.79,490.79,0,0,0,0-490.58L3558.64,162A490.62,490.62,0,0,0,3133.81-83.27Z"/><path class="cls-3" d="M3105-7.37H2082.37a464.35,464.35,0,0,0-402.22,232.22l-511.32,885.63a464.46,464.46,0,0,0,0,464.44l511.32,885.63a464.35,464.35,0,0,0,402.22,232.22H3105a464.35,464.35,0,0,0,402.22-232.22l511.32-885.63a464.46,464.46,0,0,0,0-464.44L3507.23,224.85A464.32,464.32,0,0,0,3105-7.37Z"/><path class="cls-3" d="M3076.33,68.53H2111.28a438.31,438.31,0,0,0-379.6,219.2L1249,1123.6a438.34,438.34,0,0,0,0,438.4l482.64,835.88a438.41,438.41,0,0,0,379.6,219.2h965.17a438.31,438.31,0,0,0,379.6-219.2L3938.57,1562a438.34,438.34,0,0,0,0-438.4L3455.94,287.73A438.41,438.41,0,0,0,3076.33,68.53Z"/><path class="cls-3" d="M3047.54,144.54H2140a412.27,412.27,0,0,0-357,206.07l-453.85,786a412.55,412.55,0,0,0,0,412.26l453.85,786A412.14,412.14,0,0,0,2140,2541h907.69a412.27,412.27,0,0,0,357-206.07l453.74-786a412.55,412.55,0,0,0,0-412.26l-453.85-786A412.14,412.14,0,0,0,3047.54,144.54Z"/><path class="cls-3" d="M3018.86,220.44H2168.75a386.1,386.1,0,0,0-334.37,193.06l-425.16,736.15a386.23,386.23,0,0,0,0,386.11L1834.27,2272a386.1,386.1,0,0,0,334.37,193.06h850.11A386.1,386.1,0,0,0,3353.12,2272l425.05-736.26a386.23,386.23,0,0,0,0-386.11L3353.12,413.38A385.92,385.92,0,0,0,3018.86,220.44Z"/><path class="cls-3" d="M2990.07,296.33H2197.43a359.93,359.93,0,0,0-311.76,180l-396.37,686.4a359.9,359.9,0,0,0,0,360l396.37,686.4a359.93,359.93,0,0,0,311.76,180h792.63a359.93,359.93,0,0,0,311.76-180l396.26-686.4a359.9,359.9,0,0,0,0-360l-396.37-686.4A359.62,359.62,0,0,0,2990.07,296.33Z"/><path class="cls-3" d="M2961.27,372.23H2226.12A334,334,0,0,0,1937,539.14L1569.4,1175.78a333.78,333.78,0,0,0,0,333.93L1937,2146.36a334,334,0,0,0,289.14,166.91h735.27a334,334,0,0,0,289.14-166.91l367.58-636.64a333.78,333.78,0,0,0,0-333.93L3250.53,539.14A334.07,334.07,0,0,0,2961.27,372.23Z"/><path class="cls-3" d="M2932.59,448.13H2255A307.72,307.72,0,0,0,1988.49,602l-338.78,586.89a308,308,0,0,0,0,307.79l338.78,586.89A307.72,307.72,0,0,0,2255,2237.48H2932.7a307.72,307.72,0,0,0,266.53-153.89L3538,1496.7a308,308,0,0,0,0-307.79L3199.23,602A308,308,0,0,0,2932.59,448.13Z"/><path class="cls-3" d="M2903.8,524H2283.7a281.81,281.81,0,0,0-243.91,140.77l-310.1,537a281.67,281.67,0,0,0,0,281.64l310.1,537a281.58,281.58,0,0,0,243.91,140.77H2903.8a281.81,281.81,0,0,0,243.91-140.77l310-537a281.67,281.67,0,0,0,0-281.64l-310.1-537A281.5,281.5,0,0,0,2903.8,524Z"/><path class="cls-3" d="M2875,599.93H2312.39a255.54,255.54,0,0,0-221.3,127.75l-281.31,487.27a255.34,255.34,0,0,0,0,255.5l281.31,487.27a255.41,255.41,0,0,0,221.3,127.75H2875a255.54,255.54,0,0,0,221.3-127.75l281.31-487.27a255.34,255.34,0,0,0,0-255.5L3096.3,727.67A255.51,255.51,0,0,0,2875,599.93Z"/><path class="cls-3" d="M2846.32,675.94H2341.18A229.37,229.37,0,0,0,2142.5,790.67L1890,1228.08a229.76,229.76,0,0,0,0,229.46l252.52,437.41a229.47,229.47,0,0,0,198.68,114.73h505.14A229.37,229.37,0,0,0,3045,1894.94l252.52-437.41a229.76,229.76,0,0,0,0-229.46L3045,790.67A229.37,229.37,0,0,0,2846.32,675.94Z"/><path class="cls-3" d="M2817.53,751.83H2370a203.33,203.33,0,0,0-176.07,101.6l-223.83,387.66a203.43,203.43,0,0,0,0,203.32l223.83,387.66A203.33,203.33,0,0,0,2370,1933.67h447.67a203.33,203.33,0,0,0,176.07-101.6l223.83-387.66a203.43,203.43,0,0,0,0-203.32L2993.71,853.44A203.51,203.51,0,0,0,2817.53,751.83Z"/><path class="cls-3" d="M2788.85,827.73H2398.76a177.16,177.16,0,0,0-153.45,88.58l-195.15,337.79a177.11,177.11,0,0,0,0,177.17l195,337.79a177.16,177.16,0,0,0,153.45,88.58h390.08a177.16,177.16,0,0,0,153.45-88.58l195-337.79a177.11,177.11,0,0,0,0-177.17l-195-337.79A176.85,176.85,0,0,0,2788.85,827.73Z"/><path class="cls-3" d="M2760.05,903.63H2427.45a151.12,151.12,0,0,0-130.84,75.57l-166.36,288a150.78,150.78,0,0,0,0,151l166.36,288a151.12,151.12,0,0,0,130.84,75.57h332.61a151.12,151.12,0,0,0,130.84-75.57l166.25-288a150.78,150.78,0,0,0,0-151l-166.36-288A150.81,150.81,0,0,0,2760.05,903.63Z"/><path class="cls-3" d="M2731.26,979.53H2456.13A125.08,125.08,0,0,0,2347.91,1042l-137.57,238.29a125.2,125.2,0,0,0,0,125l137.57,238.29A125,125,0,0,0,2456.13,1706h275.13a125.08,125.08,0,0,0,108.22-62.44L2977,1405.24a125.2,125.2,0,0,0,0-125L2839.48,1042A125,125,0,0,0,2731.26,979.53Z"/><path class="cls-3" d="M2702.58,1055.43H2485a98.91,98.91,0,0,0-85.61,49.42l-108.77,188.42a98.87,98.87,0,0,0,0,98.84l108.77,188.42A98.91,98.91,0,0,0,2485,1630h217.66a98.91,98.91,0,0,0,85.61-49.42l108.77-188.42a98.87,98.87,0,0,0,0-98.84l-108.88-188.42A98.91,98.91,0,0,0,2702.58,1055.43Z"/><path class="cls-3" d="M2673.79,1131.44H2513.71a72.87,72.87,0,0,0-63,36.4l-80.09,138.67a72.55,72.55,0,0,0,0,72.7l80.09,138.67a72.74,72.74,0,0,0,63,36.4h160.07a72.87,72.87,0,0,0,63-36.4l80.09-138.67a72.55,72.55,0,0,0,0-72.7l-80.09-138.67A72.51,72.51,0,0,0,2673.79,1131.44Z"/><path class="cls-3" d="M2645,1207.34H2542.4a46.6,46.6,0,0,0-40.38,23.28l-51.3,88.81a46.76,46.76,0,0,0,0,46.55l51.3,88.81a46.47,46.47,0,0,0,40.38,23.28H2645a46.6,46.6,0,0,0,40.38-23.28l51.3-88.81a46.76,46.76,0,0,0,0-46.55l-51.3-88.81A46.47,46.47,0,0,0,2645,1207.34Z"/><path class="cls-3" d="M2616.31,1283.23h-45.12a20.43,20.43,0,0,0-17.76,10.26l-22.5,39.05a20.64,20.64,0,0,0,0,20.52l22.5,39.05a20.53,20.53,0,0,0,17.76,10.26h45.12a20.43,20.43,0,0,0,17.76-10.26l22.5-39.05a20.64,20.64,0,0,0,0-20.52l-22.5-39.05A20.56,20.56,0,0,0,2616.31,1283.23Z"/></g></svg>